<svg width="100" height="100" viewBox="0 0 100 100" fill="none" xmlns="http://www.w3.org/2000/svg">
<circle cx="50" cy="50" r="50" fill="url(#paint0_linear_216_231)"/>
<path d="M41.1316 31.4953V23.7129H46.3085V31.4529H49.2257V23.7186H54.4255V31.5321C55.191 31.6468 55.9174 31.7478 56.6461 31.8763C58.7118 32.256 60.6754 32.8848 62.507 33.9415C67.9547 37.0714 67.2581 44.1643 63.1955 47.2645L62.5781 47.7383C63.0922 47.9609 63.5731 48.1296 64.0161 48.3694C67.2087 50.0984 68.836 52.7775 68.8498 56.4169C68.8641 57.8728 68.6381 59.321 68.1807 60.7033C67.0056 64.1867 64.4613 66.1463 61.022 67.0929C59.1261 67.6138 57.1855 67.7572 55.23 67.7721H54.4966V75.6957H49.4311V67.8134H46.484V75.6934H41.2911V67.7997H31.8807V62.3039H35.0137C36.9164 62.3039 37.4042 61.8174 37.4053 59.8945C37.4053 52.8788 37.4053 45.8624 37.4053 38.8452C37.4053 37.4042 36.9669 36.9131 35.514 36.8557C34.3309 36.8099 33.1431 36.8408 31.9564 36.8374H31.3608V31.5011L41.1316 31.4953ZM46.3417 61.7107C46.406 61.7428 46.4393 61.775 46.4726 61.775C48.9721 61.7176 51.4796 61.7474 53.9699 61.565C55.5765 61.4503 57.042 60.7756 58.0875 59.4436C60.2829 56.6498 59.3304 53.342 55.9599 52.2956C54.8272 51.9433 53.6061 51.7873 52.4172 51.7288C50.5672 51.6359 48.7104 51.7024 46.8559 51.7047C46.6906 51.7047 46.5254 51.7265 46.3417 51.7403V61.7107ZM46.3417 46.35C48.4155 46.35 50.4226 46.4154 52.4241 46.3328C54.5953 46.2422 56.4235 44.4156 56.653 42.2701C56.9135 39.84 55.899 38.3484 53.4707 37.6268C51.1387 36.9384 48.7471 37.2137 46.3429 37.1541L46.3417 46.35Z" fill="black"/>
<defs>
<linearGradient id="paint0_linear_216_231" x1="67.5" y1="11.5" x2="50" y2="87" gradientUnits="userSpaceOnUse">
<stop stop-color="#FFCE31"/>
<stop offset="0.515625" stop-color="#FFCF5A"/>
<stop offset="1" stop-color="#FCA400"/>
</linearGradient>
</defs>
</svg>
